<svg version="1.1" viewBox="0.0 0.0 960.0 720.0" fill="none" stroke="none" stroke-linecap="square" stroke-miterlimit="10" xmlns:xlink="http://www.w3.org/1999/xlink" xmlns="http://www.w3.org/2000/svg"><clipPath id="p.0"><path d="m0 0l960.0 0l0 720.0l-960.0 0l0 -720.0z" clip-rule="nonzero"/></clipPath><g clip-path="url(#p.0)"><path fill="#000000" fill-opacity="0.0" d="m0 0l960.0 0l0 720.0l-960.0 0z" fill-rule="evenodd"/><path fill="#cfe2f3" d="m189.78477 439.87927l0 0c0 -145.46399 117.92186 -263.38583 263.3858 -263.38583l0 0c69.85425 0 136.84747 27.749496 186.24194 77.14392c49.39441 49.39444 77.14392 116.387634 77.14392 186.24191l0 0c0 145.46399 -117.921875 263.3858 -263.38586 263.3858l0 0c-145.46396 0 -263.3858 -117.921814 -263.3858 -263.3858z" fill-rule="evenodd"/><path fill="#000000" fill-opacity="0.0" d="m266.9287 253.63736l372.48383 372.4838m0 -372.4838l-372.48383 372.4838" fill-rule="evenodd"/><path fill="#000000" fill-opacity="0.0" d="m189.78477 439.87927l0 0c0 -145.46399 117.92186 -263.38583 263.3858 -263.38583l0 0c69.85425 0 136.84747 27.749496 186.24194 77.14392c49.39441 49.39444 77.14392 116.387634 77.14392 186.24191l0 0c0 145.46399 -117.921875 263.3858 -263.38586 263.3858l0 0c-145.46396 0 -263.3858 -117.921814 -263.3858 -263.3858z" fill-rule="evenodd"/><path stroke="#000000" stroke-width="1.0" stroke-linejoin="round" stroke-linecap="butt" d="m266.9287 253.63736l372.48383 372.4838m0 -372.4838l-372.48383 372.4838" fill-rule="evenodd"/><path stroke="#000000" stroke-width="1.0" stroke-linejoin="round" stroke-linecap="butt" d="m189.78477 439.87927l0 0c0 -145.46399 117.92186 -263.38583 263.3858 -263.38583l0 0c69.85425 0 136.84747 27.749496 186.24194 77.14392c49.39441 49.39444 77.14392 116.387634 77.14392 186.24191l0 0c0 145.46399 -117.921875 263.3858 -263.38586 263.3858l0 0c-145.46396 0 -263.3858 -117.921814 -263.3858 -263.3858z" fill-rule="evenodd"/></g></svg>