<?xml version="1.0" encoding="UTF-8" standalone="no"?>
<!DOCTYPE svg PUBLIC "-//W3C//DTD SVG 1.1//EN" "http://www.w3.org/Graphics/SVG/1.1/DTD/svg11.dtd">
<svg width="100%" height="100%" viewBox="0 0 100 100" version="1.1" xmlns="http://www.w3.org/2000/svg" xmlns:xlink="http://www.w3.org/1999/xlink" xml:space="preserve" style="fill-rule:evenodd;clip-rule:evenodd;stroke-linejoin:round;stroke-miterlimit:1.41421;">
    <g transform="matrix(1,0,0,1,-28.8535,39.8509)">
        <path d="M81.801,17.355C86.586,16.704 90.574,15.337 93.764,13.254C97.377,10.845 99.184,7.834 99.184,4.22C99.184,-1.704 94.48,-4.666 85.073,-4.666C73.875,-4.666 63.556,0.07 54.116,9.543C52.748,10.812 51.804,11.447 51.284,11.447C49.363,11.447 48.403,10.015 48.403,7.15C48.403,6.173 48.907,5.164 49.916,4.123C50.242,3.83 51.43,2.804 53.481,1.046C58.884,-3.511 70.066,-11.844 87.026,-23.954L86.684,-24.344C75.942,-21.317 69.382,-19.364 67.006,-18.485C65.216,-17.736 64.076,-17.362 63.588,-17.362C60.789,-17.362 58.364,-20.324 56.313,-26.248L58.803,-27.567C59.975,-25.842 60.87,-24.735 61.489,-24.246C62.302,-23.595 63.279,-23.27 64.418,-23.27C66.209,-23.27 71.808,-24.344 81.215,-26.493C83.461,-27.013 85.089,-27.551 86.098,-28.104C87.075,-28.625 87.856,-28.885 88.442,-28.885C90.004,-28.885 91.632,-27.957 93.325,-26.102C94.659,-24.767 95.326,-23.758 95.326,-23.075C95.326,-22.489 94.724,-21.984 93.52,-21.561C88.116,-19.705 76.837,-12.414 59.682,0.314L59.926,0.656C69.562,-5.301 78.985,-8.28 88.198,-8.28C93.113,-8.28 97.215,-7.157 100.502,-4.911C103.953,-2.534 105.678,0.77 105.678,5.002C105.678,15.353 96.091,20.871 76.918,21.554C75.16,22.629 72.784,24.126 69.789,26.046C63.409,30.115 57.973,33.517 53.481,36.252L53.823,36.837C57.989,34.429 61.619,33.224 64.711,33.224C67.836,33.224 71.97,35.991 77.114,41.525C77.895,42.339 78.627,42.746 79.311,42.746C79.506,42.746 80.027,42.209 80.873,41.134C87.579,33.452 93.715,29.611 99.282,29.611C106.02,29.611 112.026,33.159 117.299,40.255C118.894,42.339 119.692,44.341 119.692,46.261C119.692,47.563 119.317,48.686 118.569,49.63C117.885,50.444 117.055,50.851 116.078,50.851C114.744,50.851 113.491,49.321 112.319,46.261C110.463,41.639 108.152,38.172 105.385,35.861C103.074,33.908 100.616,32.931 98.012,32.931C94.203,32.931 90.867,35.063 88.002,39.328C85.496,42.876 83.966,45.854 83.412,48.263C82.989,50.249 81.85,51.242 79.994,51.242C78.725,51.242 77.358,50.379 75.893,48.654C74.981,47.645 73.419,45.496 71.205,42.209C68.504,38.14 66.095,36.105 63.979,36.105C60.561,36.105 56.329,38.009 51.284,41.818C48.647,43.836 46.222,46.115 44.008,48.654C42.478,50.184 41.306,50.949 40.492,50.949C38.832,50.949 38.002,49.386 38.002,46.261C38.002,44.634 38.735,43.234 40.2,42.062C40.655,41.606 45.164,38.465 53.725,32.638C63.784,25.802 69.513,21.864 70.912,20.822C64.76,19.292 61.684,16.46 61.684,12.326C61.684,10.242 62.888,8.517 65.297,7.15C67.413,5.946 69.952,5.343 72.914,5.343C75.746,5.343 78.188,6.108 80.239,7.638C82.224,9.103 83.217,10.942 83.217,13.156C83.217,14.653 82.745,16.053 81.801,17.355ZM75.6,17.55C77.423,15.923 78.334,14.393 78.334,12.961C78.334,10.031 75.86,8.566 70.912,8.566C67.104,8.566 65.2,9.754 65.2,12.13C65.2,15.125 68.666,16.932 75.6,17.55Z" style="fill-rule:nonzero;"/>
    </g>
</svg>
