<?xml version="1.0" encoding="UTF-8" standalone="no"?>
<!DOCTYPE svg PUBLIC "-//W3C//DTD SVG 1.1//EN" "http://www.w3.org/Graphics/SVG/1.1/DTD/svg11.dtd">
<svg width="100%" height="100%" viewBox="0 0 100 100" version="1.1" xmlns="http://www.w3.org/2000/svg" xmlns:xlink="http://www.w3.org/1999/xlink" xml:space="preserve" style="fill-rule:evenodd;clip-rule:evenodd;stroke-linejoin:round;stroke-miterlimit:1.41421;">
    <g transform="matrix(1,0,0,1,-28.8535,39.8509)">
        <path d="M77.211,31.027L77.211,26.925C77.211,19.927 78.383,14.181 80.727,9.689C82.159,7.02 84.259,4.155 87.026,1.095C92.234,-4.699 94.838,-10.038 94.838,-14.92C94.838,-19.347 93.129,-22.912 89.711,-25.614C86.554,-28.088 82.55,-29.325 77.7,-29.325C72.068,-29.325 67.267,-27.681 63.295,-24.393C60.17,-21.886 58.608,-19.185 58.608,-16.288C58.608,-16.255 58.673,-15.62 58.803,-14.383C59.845,-16.108 61.293,-16.971 63.149,-16.971C66.469,-16.971 68.129,-15.148 68.129,-11.502C68.129,-7.498 65.899,-5.496 61.44,-5.496C59.519,-5.496 57.81,-6.196 56.313,-7.596C54.522,-9.289 53.627,-11.486 53.627,-14.188C53.627,-18.713 55.759,-22.717 60.024,-26.2C65.069,-30.269 71.401,-32.303 79.018,-32.303C85.561,-32.303 91.16,-30.741 95.815,-27.616C100.958,-24.067 103.53,-19.624 103.53,-14.286C103.53,-8.654 99.721,-2.795 92.104,3.293C87.481,6.971 84.487,10.308 83.119,13.302C81.264,17.241 80.336,21.945 80.336,27.414L80.336,31.027L77.211,31.027ZM78.725,39.23C79.994,39.23 81.166,39.572 82.241,40.255C84.161,41.46 85.121,43.218 85.121,45.529C85.121,47.157 84.552,48.589 83.412,49.826C82.078,51.16 80.548,51.828 78.823,51.828C77.716,51.828 76.756,51.6 75.942,51.144C73.663,50.037 72.524,48.166 72.524,45.529C72.524,43.804 73.159,42.306 74.428,41.037C75.632,39.832 77.065,39.23 78.725,39.23Z" style="fill-rule:nonzero;"/>
    </g>
</svg>
