<?xml version="1.0" encoding="utf-8"?>

<!-- License: MIT. Made by jtblabs: https://github.com/jtblabs/jtb-icons -->
<svg fill="#000000" width="800px" height="800px" viewBox="0 0 32 32" version="1.1"
  xmlns="http://www.w3.org/2000/svg">
  <title>u</title>
  <path
    d="M25.248 4.493h-0.928c-0 0-0 0-0.001 0-0.166 0-0.3 0.134-0.3 0.3v0 14.016c0.004 0.085 0.006 0.185 0.006 0.286 0 1.991-0.804 3.794-2.105 5.101l0-0c-1.435 1.286-3.34 2.071-5.429 2.071-0.173 0-0.344-0.005-0.514-0.016l0.023 0.001c-0.147 0.009-0.318 0.015-0.49 0.015-2.088 0-3.993-0.786-5.434-2.078l0.008 0.007c-1.303-1.307-2.109-3.11-2.109-5.102 0-0.1 0.002-0.2 0.006-0.299l-0 0.014v-14.016c0-0 0-0 0-0.001 0-0.165-0.134-0.299-0.299-0.299-0 0-0 0-0.001 0h-0.928c-0 0-0 0-0.001 0-0.165 0-0.299 0.134-0.299 0.299 0 0 0 0 0 0.001v-0 14.049c-0.003 0.082-0.004 0.178-0.004 0.274 0 2.399 0.971 4.572 2.542 6.146l-0-0c1.697 1.571 3.975 2.534 6.478 2.534 0.187 0 0.373-0.005 0.558-0.016l-0.026 0.001c0.165 0.010 0.357 0.016 0.551 0.016 2.504 0 4.782-0.964 6.484-2.541l-0.006 0.006c1.56-1.577 2.524-3.747 2.524-6.141 0-0.098-0.002-0.196-0.005-0.293l0 0.014v-14.049c-0-0.166-0.134-0.3-0.3-0.3-0 0-0.001 0-0.001 0h0z"></path>
</svg>