<svg version="1.1" id="_x32_" xmlns="http://www.w3.org/2000/svg" x="0" y="0" viewBox="0 0 196.816 800" xml:space="preserve"><style>.st0{fill:#e63119}</style><path class="st0" d="M193.29 791.931h-.012c-.147-.817-.333-1.845-.568-3.09-1.531-8.338-4.823-26.013-9.158-49.797a1.83 1.83 0 00.841-1.531c0-.884-.622-1.61-1.452-1.785-2.217-12.17-4.685-25.831-7.326-40.583a1.82 1.82 0 00-.532-3.558h-.103a10026.103 10026.103 0 01-8.389-47.603 1.83 1.83 0 00.888-1.559c0-.88-.638-1.614-1.472-1.781a8856.092 8856.092 0 01-8.155-47.81 1.807 1.807 0 001.571-1.793 1.824 1.824 0 00-1.821-1.825h-.357c-.369-2.225-.734-4.462-1.114-6.692a6867.171 6867.171 0 01-5.526-33.756h.012a1.832 1.832 0 001.825-1.833c0-.999-.821-1.817-1.825-1.817h-.599a5095.9 5095.9 0 01-6.636-42.51 1.812 1.812 0 001.555-1.791 1.828 1.828 0 00-1.821-1.829h-.282c-2.594-17.211-5.013-33.974-7.171-49.884a1.815 1.815 0 001.182-1.698c0-.95-.726-1.721-1.658-1.805a2008.164 2008.164 0 01-4.323-34.416 1.818 1.818 0 00-.083-3.634h-.341c-1.079-9.564-2.011-18.552-2.745-26.846a1.81 1.81 0 001.114-1.682c0-.863-.599-1.585-1.412-1.771-.814-9.611-1.345-18.203-1.563-25.571a1.81 1.81 0 00-.075-3.582 235.578 235.578 0 01-.028-3.299c0-6.059.151-12.566.429-19.434a1.818 1.818 0 001.69-1.807c0-.905-.663-1.648-1.532-1.795a854.17 854.17 0 011.579-25.036 1.812 1.812 0 00.258-3.259c.654-8.195 1.424-16.634 2.273-25.203a1.817 1.817 0 001.368-1.755c0-.71-.425-1.331-1.024-1.628 1.21-11.886 2.575-23.99 4.03-35.999h.162a1.823 1.823 0 001.821-1.821c0-.908-.674-1.656-1.539-1.793.857-7.03 1.742-14.022 2.65-20.902.552-.313.921-.896.921-1.58 0-.508-.206-.966-.544-1.295.706-5.353 1.429-10.645 2.139-15.823.333-2.41.662-4.798.995-7.154h.397a1.81 1.81 0 001.816-1.819 1.81 1.81 0 00-1.706-1.811 3502.218 3502.218 0 013.717-25.517 1.826 1.826 0 001.638-1.805c0-.756-.46-1.403-1.118-1.682a3402.883 3402.883 0 013.855-25.05 1.819 1.819 0 001.551-1.791c0-.712-.412-1.321-1.011-1.619a3886.005 3886.005 0 013.292-20.305c.488-2.935.849-5.066 1.06-6.295a2.224 2.224 0 00-.33-4.325v-8.933a.456.456 0 00.079-.243.446.446 0 00-.079-.24V69.07a.447.447 0 00.079-.242.446.446 0 00-.079-.24v-.567a.408.408 0 00-.417-.406.407.407 0 00-.401.406v.401h-7.275v-.401a.409.409 0 00-.412-.406.401.401 0 00-.397.406v.401h-8.096v-.401a.407.407 0 00-.813 0v.401h-9.706v-.401a.405.405 0 10-.809 0v.401h-8.683v-5.526H99.011C98.995 53.844 98.94 2 98.345 2c-.599 0-.647 51.844-.654 60.896h-18.43v5.526h-8.457v-.401a.401.401 0 00-.401-.406.407.407 0 00-.404.406v.401h-9.71v-.401a.402.402 0 10-.805 0v.401h-8.1v-.401a.401.401 0 10-.802 0v.401H43.3v-.401a.407.407 0 00-.404-.406.404.404 0 00-.413.406v.421a.4.4 0 00-.314.386.39.39 0 00.314.383v7.725a.407.407 0 00-.314.388.4.4 0 00.314.387v8.764a2.228 2.228 0 00-2.134 2.224c0 1.003.662 1.849 1.579 2.126.206 1.229.567 3.36 1.051 6.295.801 4.798 1.935 11.731 3.296 20.305a1.817 1.817 0 00-1.008 1.619c0 .912.675 1.662 1.555 1.791a3626.328 3626.328 0 013.852 25.05 1.831 1.831 0 00-1.123 1.682c0 .942.726 1.711 1.642 1.805a3502.218 3502.218 0 013.717 25.517 1.818 1.818 0 00-1.713 1.811 1.82 1.82 0 001.824 1.819h.397a2924.088 2924.088 0 013.133 22.977 1.79 1.79 0 00-.543 1.295c0 .684.369 1.267.92 1.58a2453.49 2453.49 0 011.837 14.341l.091 6.841a1.818 1.818 0 001.004 3.334h.162a1832.617 1832.617 0 014.022 35.999 1.814 1.814 0 00.348 3.383c.853 8.57 1.615 17.007 2.277 25.203a1.802 1.802 0 00-.904 1.567c0 .772.483 1.428 1.162 1.692.666 8.695 1.201 17.086 1.574 25.036a1.826 1.826 0 00-1.527 1.795c0 .96.745 1.735 1.682 1.807.289 6.864.44 13.373.44 19.434 0 1.063-.007 2.164-.023 3.294a1.821 1.821 0 00-1.599 1.799c0 .901.659 1.642 1.511 1.787-.214 7.366-.746 15.96-1.559 25.573a1.817 1.817 0 00-.301 3.451c-.734 8.294-1.658 17.282-2.745 26.846h-.34a1.817 1.817 0 00-.079 3.634 2028.679 2028.679 0 01-4.324 34.416 1.812 1.812 0 00-1.658 1.805c0 .782.492 1.442 1.19 1.698-.23 1.62-.448 3.252-.67 4.886-1.983 14.443-4.181 29.542-6.509 44.997h-.29a1.828 1.828 0 00-1.824 1.829c0 .413.151.795.393 1.105l-.949 14.527c-1.468 9.48-2.979 19.06-4.514 28.669h-.602a1.823 1.823 0 00-1.821 1.817c0 1.012.817 1.833 1.821 1.833h.012a7099.663 7099.663 0 01-6.637 40.447h-.357a1.826 1.826 0 00-1.829 1.825c0 .92.69 1.678 1.579 1.793a8844.289 8844.289 0 01-8.163 47.81 1.814 1.814 0 00-1.46 1.781c0 .659.357 1.242.881 1.559a8678.496 8678.496 0 01-5.574 31.757c-.952 5.395-1.884 10.686-2.812 15.847h-.111c-1 0-1.821.821-1.821 1.821 0 .825.556 1.507 1.297 1.737a17363.812 17363.812 0 01-7.326 40.583 1.822 1.822 0 00-1.451 1.785c0 .646.341 1.206.845 1.531-1.389 7.647-2.686 14.68-3.84 20.956-1.943 10.548-3.514 19.008-4.593 24.863-.54 2.939-.96 5.22-1.254 6.791-.016.099-.028.191-.04.278h-.02a3.041 3.041 0 00-3.038 3.039 3.042 3.042 0 003.038 3.031h189.76a3.031 3.031 0 003.034-3.031 3.03 3.03 0 00-3.034-3.041zm-14.054-56.239h-5.268l-5.212-40.463h3.173c2.623 14.692 5.09 28.313 7.307 40.463zm-29.702-95.088l-9.913-47.739h7.608l3.11 47.739h-.805zm1.047 3.649l.123 2.003-.412-2.003h.289zm1.071 16.501l2.007 30.833h-10.527l-8.643-47.334h13.732l3.431 16.501zm2.007-.277l-1.051-16.224h7.544l6.101 47.334h-6.129l-6.465-31.11zm4.395 31.11h-2.364l-1.087-16.612 3.451 16.612zm-4.152 3.641l2.637 40.463h-5.351l-7.386-40.463h10.1zm2.022 0h2.892l8.406 40.463h-8.655l-2.643-40.463zm4.954 0h5.839l5.209 40.463h-2.642l-8.406-40.463zm11.516 44.102l3.839 29.861-6.195-29.861h2.356zm-3.82-62.951c.912 5.172 1.82 10.246 2.705 15.208h-2.995l-6.093-47.334h.749c1.913 11.035 3.806 21.777 5.634 32.126zm-6.267-35.775h-.583l-1.713-13.328c.765 4.486 1.538 8.929 2.296 13.328zm-2.622 0h-7.31l-3.118-47.739h4.28l6.148 47.739zm-12.773-91.835a7217.49 7217.49 0 006.644 40.447h-4.542l-2.629-40.447h.527zm-.575-3.65h-.186l-.135-1.967c.111.654.21 1.317.321 1.967zm.654 44.097h-8.12l-7.826-37.643-.031-2.804h13.343l2.634 40.447zM64.775 695.228h10.658l-5.201 40.463H64.27l.505-40.463zm-.702-106.012h-5.28l5.629-27.056-.349 27.056zm13.645-184.797l-1.305-23.57h2.106l1.598 12.606-2.399 10.964zm.25 41.17h-7.203l5.748-26.233 1.455 26.233zm48.274-359.117h-8.683v-8.744h8.683v8.744zm3.784 544.576l.119 9.556h-16.684l-4.216-33.328.762-14.411h13.046l6.973 38.183zm-4.922-38.182h4.438l.326 26.097-4.764-26.097zM87.436 451.283l3.654 28.828-3.444 18.878h-4.708L81.8 478.456l5.636-27.173zm-6.068 19.309l-1.182-21.366h5.617l-4.435 21.366zm.047-83.031l-.853-6.711h2.32l-1.467 6.711zm.492 19.991h-2.804l1.773-8.112 1.031 8.112zm-5.034-55.834h2.118l.603 3.249-1.436 6.902-1.285-10.151zm1.182 25.488H77.04l.63-3.058.385 3.058zm-1.042-75.916l4.244 20.448h-5.685l-1.166-6.378c.079-.551.151-1.127.234-1.744l2.373-12.326zm-1.187-15.65l-3.594-17.306h5.454a4719.03 4719.03 0 01-1.86 17.306zm.726-60.394h-3.031l.456-11.775 2.575 11.775zm-3.225-75.858h1.095l-.171 4.47-.924-4.47zm.952 56.053l.04-.825h8.409l1.043 5.023c-.511 4.974-1.011 9.946-1.519 14.877-.02.246-.052.488-.075.73h-3.55l-4.348-19.805zm47.068-51.586l-.178-4.466h1.103l-.925 4.466zm.282 59.62l.46 11.771h-3.042l2.582-11.771zm-.341-8.859l.028.827-4.336 19.803h-3.562c-.524-5.172-1.055-10.385-1.591-15.605l1.051-5.025h8.41zm-2.701 96.674l2.384 12.333c.067.613.147 1.186.218 1.737l-1.166 6.378h-5.676l4.24-20.448zm-.683-32.956h5.454l-3.582 17.306c-.59-5.379-1.217-11.184-1.872-17.306zm.127 96.39l-2.019-9.757.591-3.249h3.106l-1.678 13.006zm.528 12.482h-.096l.04-.28.056.28zm-3.804 12.949l-2.039-9.306h3.233l-1.194 9.306zm1.749 17.397h-1.948l.719-5.587 1.229 5.587zm-2.475 71.999l-1.043 19.438h-5.03l-3.042-16.64 3.717-28.806 5.398 26.008zm-4.237-30.325h5.859l-1.202 22.409-4.657-22.409zm-1.154 169.387l2.785 21.991h-3.959l1.174-21.991zm-1.218-25.747h.564l-.17 3.161-.394-3.161zm.754-3.65h-1.217l-5.125-40.447h8.505l-2.163 40.447zM98.61 178.517l-.812 4.202-.81-4.202h1.622zm-2.324-3.645l-4.606-23.873c.056-.54.115-1.079.171-1.611h11.9c.064.531.107 1.071.159 1.611l-4.601 23.873h-3.023zm1.512 18.542l1.459 7.557h-2.915l1.456-7.557zm2.161 11.202l3.971 20.63H91.665l3.979-20.63h4.315zm3.757 271.19l-4.848-26.581h8.278l-3.43 26.581zm.348 13.145l1.829 10.038h-3.126l1.297-10.038zm-2.78-192.091l-3.486 15.904-3.483-15.904h6.969zm-6.807-3.645l3.32-16 3.32 16h-6.64zm4.015 32.165l4.978 22.697H92.133l4.971-22.697h1.388zm2.07 0h7.239l1.861 8.962-2.852 13.735h-1.277l-4.971-22.697zm-.797-3.642l-.928-4.246 3.756-17.171 4.446 21.418h-7.274zm-.936-49.497l.814-3.907h7.886l-4.875 22.293-3.825-18.386zm1.57-7.551l5.776-27.815 3.867 20.045-1.709 7.771h-7.934zm-2.07 0h-1.063l-6.85-32.975.547-2.83h13.673l.547 2.828-6.854 32.977zm-3.134 0h-7.929l-1.702-7.771 3.86-20.043 5.771 27.814zm.762 3.644l.809 3.905-3.812 18.388-4.891-22.293h7.894zm-2.956 31.987l3.765 17.166-.932 4.252h-7.283l4.45-21.418zm2.032 25.059l-4.97 22.697h-1.274l-2.852-13.735 1.856-8.962h7.24zm-3.697 26.338h12.923l.924 4.191-4.431 21.297h-5.914l-4.423-21.297.921-4.191zm8.671 29.131l-2.209 10.605-2.194-10.605h4.403zm-2.209 20.559l1.277 6.144H96.52l1.278-6.144zm2.038 9.786l2.047 9.865-4.085 22.344-4.086-22.342 2.055-9.867h4.069zm-.377 34.395l3.518-19.258 3.999 19.258h-7.517zm3.396-29.822l-.956-4.573h1.789l-.833 4.573zm-1.71-8.215l-2.316-11.119 3.237-15.585h7.164l-4.883 26.703h-3.202zm1.678-30.346l3.423-16.458 3.598 16.458h-7.021zm4.431-21.307l.868-4.181h5.149l.678 3.28-3.134 17.162-3.561-16.261zm1.622-7.822l1.813-8.76 1.829 8.76h-3.642zm1.813-18.717l-.825-3.98h1.654l-.829 3.98zm-1.583-7.622l-5.161-24.879h13.491l-5.161 24.879h-3.169zm-4.954-28.523l5.458-24.881h2.629l4.792 24.881h-12.879zm6.252-28.525l.603-2.747.535 2.747h-1.138zm.725-12.778l-3.883-20.184.587-2.842h3.927c.48 4.629.948 9.208 1.416 13.71l-2.047 9.316zm-2.538-26.666l1.872-9.036c.31 3.026.619 6.037.924 9.036h-2.796zm-2.067 0h-.532l-3.97-20.63h7.267c.162 1.638.329 3.274.496 4.916l-3.261 15.714zm-16.921 0h-.524l-3.268-15.714c.167-1.642.333-3.278.504-4.916h7.275l-3.987 20.63zm-2.587 0h-2.804c.314-2.999.611-6.009.92-9.036l1.884 9.036zm.749 3.639l.595 2.842-3.899 20.184-2.035-9.316c.464-4.502.94-9.077 1.408-13.71h3.931zm-3.168 33.058l.603 2.747h-1.135l.532-2.747zm1.4 6.391l5.451 24.881H78.563l4.804-24.881h2.63zm5.66 28.526l-5.164 24.879h-3.174l-5.16-24.879h13.498zm-5.923 28.52l-.829 3.98-.825-3.98h1.654zm-.828 13.935l1.817 8.762h-3.637l1.82-8.762zm2.578 12.403l.869 4.177-3.57 16.261-3.134-17.157.682-3.28h5.153zm1.877 9.03l3.415 16.458H85.75l3.611-16.458zm4.169 20.101l3.237 15.585-2.308 11.119H91.25l-4.871-26.703h7.151zm.166 30.345l-.944 4.573-.837-4.573h1.781zm-1.071 15.138l3.518 19.256h-7.385l-.048-.405 3.915-18.851zm4.113 22.894l-4.439 24.292-3.082-24.292h7.521zm-3.253 49.763h-3.78l2.233-12.233 1.547 12.233zm-.341-18.823l4.653-25.505 5.073 27.744-2.142 16.584H95.52l-2.376-18.823zm7.116 22.472l-2.154 16.72-2.122-16.72h4.276zm-.923 42.481h-2.511l1.265-9.801 1.246 9.801zm.447 3.65l5.129 40.447H91.146l5.208-40.447h3.43zm5.594 44.097l1.832 14.482-1.769 33.256H90.74l-1.86-33.832 1.793-13.907h14.705zm-4.011-47.747l-2.249-17.776 3.186-24.705h4.256l4.828 26.402-.849 16.079h-9.172zm7.251-42.481h4.173l-.937 17.689-3.236-17.689zm4.332 34.99l1.381 7.49h-1.773l.392-7.49zm-4.792-96.284l-4.212-20.307 1.789-9.843h6.314l-3.891 30.15zm-1.757-33.792l4.59-25.121 3.003 13.673-1.475 11.448h-6.118zm5.549-30.346l3.091-16.937 2.201 10.593-.817 6.345h-4.475zm3.265-29.129h-.635l-2.852-13.735 1.86-8.962h5.768l-4.141 22.697zm-.921-79.743h1.579a6540.09 6540.09 0 001.523 14.199c.163 1.479.322 2.929.476 4.359l-3.578-18.558zm-.697-3.644l-1.5-7.749 1.749-7.929c.556 5.38 1.103 10.629 1.642 15.678h-1.891zm.194-35.805h2.387l-1.622 7.404c-.257-2.449-.507-4.914-.765-7.404zm-.163-27.915l4.669-22.453h1.984l.864 22.453h-7.517zm-2.063 0h-.615c-.627-6.236-1.257-12.453-1.868-18.568a3607.12 3607.12 0 00-.393-3.885h7.537l-4.661 22.453zm-2.645 0h-7.597l-2.498-12.904 1.848-9.549h5.985c.735 7.361 1.496 14.883 2.262 22.453zm-7.549-26.098l3.241-16.825c.548 5.452 1.103 11.081 1.682 16.825h-4.923zm1.599-54.008h6.755l-4.474 23.171c-.837-8.483-1.607-16.303-2.281-23.171zm.42 24.883H92.212c.908-9.149 1.733-17.566 2.452-24.883h6.267c.726 7.321 1.559 15.734 2.459 24.883zm-13.046-1.712l-4.462-23.171h6.752c-.68 6.866-1.453 14.688-2.29 23.171zm.643 14.012l3.237 16.825h-4.911c.563-5.744 1.134-11.373 1.674-16.825zm3.947 20.47l1.836 9.549-2.487 12.904h-7.596c.761-7.57 1.515-15.093 2.249-22.453h5.998zm-10.29 22.453h-.603l-4.673-22.453h7.541c-.734 7.361-1.495 14.887-2.265 22.453zm-2.677 0H74.45l.876-22.453h1.984l4.657 22.453zm-.163 27.915c-.254 2.489-.512 4.951-.765 7.404l-1.611-7.404h2.376zm-.044 20.121l1.734 7.935-1.492 7.749H80.11c.54-5.049 1.083-10.297 1.65-15.684zm-.463 19.328l-3.57 18.554c.627-5.732 1.297-11.959 1.995-18.554h1.575zm.713 57.046l1.873 8.962-2.864 13.735h-.635l-4.149-22.697h5.775zm-1.447 34.888l3.086 16.937h-3.546l-1.158-9.155 1.618-7.782zm4.045 22.164l4.585 25.121h-5.252l-1.777-14.004 2.444-11.117zm5.252 28.762l1.796 9.843-3.732 17.966-3.518-27.81h5.454zm-6.914 124.774l.508 9.151h-2.178l1.67-9.151zm.182-33.33h3.856L84.029 518.8l-.901-16.162zm5.907 0h4.911l3.134 24.7-2.293 17.78h-9.309l-.976-17.671 4.533-24.809zm5.279 46.131l-5.212 40.447h-1.189l-2.226-40.447h8.627zm-5.676 44.097l-.373 2.828-.159-2.828h.532zm.08 47.738h-4.193l2.931-22.82 1.262 22.82zm.198 3.649l2.618 47.334H77.948l6.108-47.334h4.86zm2.031 0h14.292l-2.519 47.334h-9.167l-2.606-47.334zm16.322 0h4.613l5.998 47.334h-13.141l2.53-47.334zm6.649 0h16.267l.591 47.334h-10.857l-6.001-47.334zm16.104-175.006l6.514 29.742h-6.145l-.369-29.742zm-19.809 119.969l2.154-40.447h2.626l7.382 40.447h-12.162zm3.205-60.304l1.408-26.273h3.998l8.814 42.48h-11.257l-2.963-16.207zm1.599-29.923l.622-11.676 2.428 11.676h-3.05zm-5.363-53.4l4.431-34.395h3.217l.298 1.378-1.758 33.016h-6.188zm6.39-49.574l1.952-15.166h1.297l-1.289 24.123-1.96-8.957zm3.181 23.993l5.609 25.581h-6.969l1.36-25.581zm.976-56.299l-.484 9.121-.42-2.051.904-7.07zm.71 24.804l3.951 19.04h-4.97l1.019-19.04zm-.734-40.436h-2.911l4.153-22.697h.829l-.603 11.331-1.468 11.366zm1.904-26.339l.02-.089a.636.636 0 00.016.089h-.036zm.401 37.213c.29 5.573.703 11.679 1.261 18.254h-2.233l.972-18.254zm-.076-50.216c-.424-3.453-.888-7.437-1.388-11.876h3.221c-.079 1.029-.158 2.055-.234 3.078l-1.599 8.798zm-1.793-15.52c-.047-.353-.083-.71-.123-1.073l3.523-16.971.634 16.461c-.04.532-.083 1.059-.126 1.583h-3.908zm-3.094-28.525c-.742-7.003-1.507-14.377-2.3-21.979l3.03-13.826h3.97l1.393 35.805h-6.093zm4.78-86.173h4.919l-4.181 19.069-.738-19.069zm-.138-3.645l-.492-12.628 2.669-12.855h9.262l-5.581 25.484h-5.858zm.868-29.125h-1.999l-.964-24.883h8.128l-5.165 24.883zm-2.891 29.125h-1.091l.916-4.407.175 4.407zm-3.15 0h-8.663c-.821-8.229-1.618-16.218-2.368-23.778l.33-1.706h12.868l.492 12.687-2.659 12.797zm-10-29.125l4.796-24.883h6.259l.964 24.883h-12.019zm5.49-28.528L117 93.792l.9 23.427h-5.422zm3.01-26.295l-5.065 26.295h-7.818c-.73-7.493-1.337-13.655-1.761-18.03-.464-4.712-.722-7.34-.722-7.348a1.004 1.004 0 00-1.099-.908 1.016 1.016 0 00-.916 1.106l2.468 25.18h-5.55c1.524-15.456 2.464-25.178 2.464-25.178a1.012 1.012 0 10-2.011-.201c0 .008-.333 3.445-.929 9.492-.4 4.159-.928 9.546-1.555 15.887h-7.81l-5.073-26.295h35.377zm-32.371 26.295h-5.426l.916-23.427 4.51 23.427zm.694 3.645l4.8 24.883H76.588l.968-24.883h6.255zm5.509 28.524l.322 1.703c-.749 7.563-1.547 15.551-2.368 23.78h-8.655l-2.654-12.796.488-12.687H89.32zm-12.768 25.484h-1.083l.167-4.407.916 4.407zm-1.987-29.125H72.57l-5.165-24.883h8.124l-.964 24.883zm-.635 16.497l-.492 12.628h-5.847l-5.593-25.484h9.258l2.674 12.856zm-.635 16.273l-.73 19.069-4.184-19.069h4.914zm.08 50.368h3.975l3.026 13.822c-.781 7.606-1.559 14.98-2.3 21.983h-6.093l1.392-35.805zm1.733 63.254c-.039.365-.075.722-.115 1.075H72.3a968.938 968.938 0 00-.972-11.43l.258-6.62 3.522 16.975zm-2.336 88.71h1.444l-2.681 12.923c.448-4.468.868-8.782 1.237-12.923zm.314-3.643c.241-2.862.452-5.638.646-8.324l.457 8.324h-1.103zm.257-69.668c-.234-3.5-.484-7.062-.758-10.678h2c-.445 3.931-.861 7.51-1.242 10.678zm4.99 40.539h-1.924l-1.824-14.427a783.708 783.708 0 00-.242-7.43l3.99 21.857zm-3.498 3.641l2.055 16.247-.928 4.516-1.146-20.763h.019zm3.466 59.476h4.062l4.299 33.906-.099.488h-6.577l-1.856-33.619.171-.775zm1.896 74.969l.718 12.826h-3.38l2.662-12.826zm.913 16.475l1.361 24.685-3.253 17.796H67.96l8.822-42.48h4.328zm-.496 46.131h3.038l2.233 40.447H73.22l7.394-40.447zm5.474 44.097l.765 13.835-4.375 33.903H65.457l.127-9.56 6.969-38.179h13.535zm-4.078 51.387l-6.096 47.334H64.827l.591-47.334H82.01zm-4.526 50.975h14.248l2.233 40.463H72.26l5.224-40.463zm16.275 0h8.766l-2.154 40.463h-4.383l-2.229-40.463zm10.79 0h13.792l5.129 40.463h-21.075l2.154-40.463zm15.83 0h10.448l.5 40.463H125.5l-5.121-40.463zM131.18 562.16l5.621 27.056h-5.28l-.341-27.056zm8.525-59.522c.932 6.162 1.884 12.38 2.86 18.633l1.551 23.847H130.97l-.54-42.48h6.899l.039.165c.103.476.527.799.988.799a.772.772 0 00.218-.028c.456-.095.77-.492.793-.936h.338zm-6.985-48.15a3355.78 3355.78 0 006.429 44.501h-.543l-8.71-39.765-.135-9.998h2.245c.233 1.745.475 3.497.714 5.262zm-1.206-8.899h-1.793l-.186-15.208c.63 4.964 1.292 10.037 1.979 15.208zm-2.015 143.627h-5.061l-7.394-40.447h11.353l.635 3.026.467 37.421zm-.599-48.008l-8.017-38.569h7.529l.488 38.569zm-.532-42.219h-8.235l-4.074-19.593 1.61-30.17h7.957l2.245 10.232.497 39.531zm-.623-49.763v.206l-.043-.206h.043zm-.468-37.33l.421 33.693h-.793l-7.267-33.179.06-1.216h7.497l.082.702zm-.678-5.914l-5.22-25.132h2.674c.689 7.8 1.547 16.211 2.546 25.132zm-.539-130.33l-.286-7.318h.992c-.238 2.451-.481 4.895-.706 7.318zm1.07-10.962h-1.499l-1.38-35.805h6.886a1984.942 1984.942 0 00-4.007 35.805zm5.728-49.744c-.433 3.42-.861 6.853-1.289 10.3h-7.461l-.766-19.625.226-1.005h9.429l-.139 10.33zm.187-13.976h-8.675l4.914-22.453h4.058l-.297 22.453zm.345-26.098h-3.304l3.522-16.069-.218 16.069zm.396-29.125h-8.687l5.165-24.883h3.852l-.33 24.883zm.378-28.528h-3.142l3.356-16.174-.214 16.174zm-5.212 0h-9.02l-.988-25.525a1.036 1.036 0 00-.416-.77h15.878l-5.454 26.295zm6.164 80.409l.25-19.111h2.364c-.877 6.218-1.75 12.606-2.614 19.111zm3.125-22.756h-2.824l.341-25.484h6.18a3074.454 3074.454 0 00-3.697 25.484zm4.069-29.125h-5.842l5.454-24.883h2.321l-1.933 24.883zm-6.413-6.839l.238-18.044h3.709l-3.947 18.044zm8.635-21.689h-1.813l2.805-12.808-.992 12.808zm1.702 4.149l.047-.504h.036c-.028.165-.059.334-.083.504zm-5.589-4.149h-4.459l.345-26.295h9.877l-5.763 26.295zm6.247 0h-.329l2.042-26.295h2.579a2834.39 2834.39 0 00-4.292 26.295zm-.416-47.986h7.275v7.685h-7.275v-7.685zm7.275 8.494v8.744h-7.275v-8.744h7.275zm-16.18-8.494h8.096v7.685h-8.096v-7.685zm8.096 8.494v8.744h-8.096v-8.744h8.096zm-18.616-8.494h9.706v7.685h-9.706v-7.685zm9.707 8.494v8.744h-9.706v-8.744h9.706zm-10.516-8.494v7.685h-8.683v-7.685h8.683zm-55.438 0h8.457v7.685h-8.457v-7.685zm8.457 8.494v8.744h-8.457v-8.744h8.457zm-18.972-8.494h9.71v7.685h-9.71v-7.685zm-.587 69.675l-3.947-18.044h3.705l.242 18.044zm-8.318-69.675h8.1v7.685h-8.1v-7.685zm8.1 8.494v8.744h-8.1v-8.744h8.1zM43.3 69.233h7.283v7.685H43.3v-7.685zm7.283 8.494v8.744H43.3v-8.744h7.283zM45.64 90.924h1.356l1.206 15.547c-1.209-7.491-2.114-12.872-2.562-15.547zm13.423 0l.349 26.295h-4.463l-5.763-26.295h9.877zm-7.996 26.295l-.995-12.814 2.808 12.814h-1.813zm1.118 14.438l-.837-10.793h2.328l5.454 24.883h-4.799a2268.46 2268.46 0 00-2.146-14.09zm6.399 43.215a3455.21 3455.21 0 00-3.697-25.484h4.962l.337 25.484h-1.602zm.507 3.645h1.138l.127 9.066c-.424-3.058-.841-6.079-1.265-9.066zm1.198-92.045v-8.744h9.71v8.744h-9.71zm16.779 4.452a1.004 1.004 0 00-.405.77l-.987 25.525h-9.028l-5.454-26.295h15.874zm-15.843 10.123l3.364 16.172h-3.154l-.21-16.172zm.595 44.7l-.329-24.883h3.844l5.168 24.883H61.82zm.17 13.05l3.527 16.075h-3.312l-.215-16.075zm.262 19.72h4.058l4.923 22.453h-8.679l-.302-22.453zm.385 26.099h9.401l.21 1.003-.754 19.627h-6.243a2869.908 2869.908 0 00-2.614-20.63zm7.322 60.074h-.266a1906.665 1906.665 0 00-4.006-35.805h5.668l-1.396 35.805zm4.824 123.365l1.075 19.498h-5.117l4.042-19.498zm-6.608 35.221c.512-4.113.996-8.145 1.456-12.082h6.43l.031.615-7.389 33.78h-.801l.273-22.313zm-.322 25.95h.044l-.047.204.003-.204zm-.123 10.228l2.234-10.228h8.199l1.611 29.077-4.299 20.686h-8.239l.494-39.535zm-.547 43.184h7.532l-8.016 38.566.484-38.566zm-.611 49.157l.627-3.026h11.353l-7.394 40.447H66.1l.472-37.421zm-.516 41.071h4.443l-4.772 26.092.329-26.092zm-.115-152.022l-.067 4.744h-.563c.21-1.593.416-3.173.63-4.744zm-1.178 8.792c.016-.141.04-.272.056-.411h1.012l-.127 9.998-6.585 30.041a3154.722 3154.722 0 005.644-39.628zm.822 19.613l-.381 29.74h-6.145l6.526-29.74zm-13.42 65.341a5083.09 5083.09 0 004.812-31.031l.052.016c.072.02.143.028.214.028.464 0 .881-.323.988-.799l.04-.165h6.894l-.532 42.48H51.479l.686-10.529zm12.427 14.179l-.043 2.804-7.815 37.643h-8.123l2.634-40.447h13.347zM23.673 735.692l5.212-40.463h5.835l-8.402 40.463h-2.645zm1.892 3.638l-6.204 29.848 3.844-29.848h2.36zm11.226-44.102h2.884l-2.642 40.463h-8.647l8.405-40.463zm.749-3.641l3.451-16.612-1.075 16.612H37.54zm4.161 3.641H51.8l-7.394 40.463h-5.335l2.63-40.463zm.234-3.641l2.007-30.837 3.431-16.497h13.733l-8.648 47.334H41.935zm2.959-45.339l.131-1.995h.278l-.409 1.995zm1.166-5.644h-.801l3.11-47.739h7.608l-9.917 47.739zm2.686-84.691l-2.166 33.304h-3.32a5816.676 5816.676 0 005.486-33.304zm-8.608 51.899c.794-4.669 1.591-9.377 2.381-14.097.043-.286.091-.572.135-.849h3.693l-3.118 47.739H35.91l4.228-32.793zm2.848 36.441l-1.051 16.22-6.458 31.114h-6.124l6.101-47.334h7.532zm-10.924 10.452l-4.752 36.882h-1.761c2.082-11.713 4.268-24.069 6.513-36.882zm-7.167 40.523h1.943l-5.204 40.463h-4.046a10312.69 10312.69 0 007.307-40.463zM7.239 791.931c1.269-6.937 4.827-25.953 9.683-52.601h4.244l-6.77 52.601H7.239zm9.424 0c.04-.079.076-.17.092-.254l10.869-52.348h9.175l-3.428 52.601H16.663zm22.166-52.601h4.915l-7.639 41.836 2.724-41.836zm22.713 52.601H36.188l9.607-52.601h16.406l-.659 52.601zm.698-56.239H46.473l7.378-40.463h8.897l-.508 40.463zm.564-44.105h-8.286l8.652-47.334h.218l-.584 47.334zm-1.024-50.983H48.135l9.912-47.739h5.982l-.476 37.984-1.773 9.755zm2.443 98.726h5.534l-6.129 47.548.595-47.548zm.794 52.601l6.776-52.601h22.371l2.907 52.601H65.017zm31.174-52.601h3.991l-1.968 36.695-2.023-36.695zm3.201 52.601l2.808-52.601h21.729l6.656 52.601H99.392zm26.577-52.601h5.41l.595 47.389-6.005-47.389zm5.592-146.464h6.001l9.909 47.739h-13.649l-1.785-9.754-.476-37.985zm.647 51.387h.218l8.651 47.334h-8.275l-.594-47.334zm.639 50.975h8.897l7.394 40.463H133.35l-.503-40.463zm1.205 96.703l-.659-52.601H149.8l9.607 52.601h-25.355zm17.803-52.601h4.919l2.729 41.836-7.648-41.836zm10.368 52.601l-3.415-52.601h9.162l10.869 52.348a.834.834 0 00.103.254h-16.719zm18.989 0l-6.782-52.601h5.473a6736.886 6736.886 0 003.907 21.328c1.94 10.548 3.515 19.008 4.589 24.871.496 2.709.897 4.855 1.179 6.402h-8.366z"/><path class="st0" d="M46.12 84.46h-1.905l-1.4-6.113-.488 1.383v4.73h-1.67V69.657h1.67v6.509h.036c.131-.593.274-1.168.413-1.765l1.293-4.744h1.984l-2.071 6.372 2.138 8.431z"/><path class="st0" d="M53.593 76.855c0 5.152-1.582 7.814-3.931 7.814-2.574 0-3.824-3.526-3.824-7.58 0-4.177 1.448-7.646 3.955-7.646 2.71 0 3.8 3.814 3.8 7.412zm-5.525.172c-.016 2.836.591 4.864 1.662 4.864 1.079 0 1.627-2.027 1.627-4.917 0-2.59-.54-4.752-1.627-4.752-1.131 0-1.662 2.261-1.662 4.805zm11.555-.458c1.233.458 1.975 1.819 1.975 3.542 0 1.166-.349 2.277-.972 3.064-.718.901-1.908 1.416-3.915 1.416-1.019 0-1.801-.095-2.328-.208v-14.52c.619-.173 1.729-.305 2.824-.305 1.242 0 2.182.192 2.947.901.678.612 1.079 1.626 1.079 2.874 0 1.285-.484 2.529-1.611 3.177v.059zm-2.325-.996c1.004 0 1.587-.767 1.587-1.842 0-1.184-.583-1.7-1.381-1.7-.369 0-.595.036-.757.097v3.445h.551zm-.551 6.434c.175.056.377.056.658.056.905 0 1.706-.613 1.706-2.045 0-1.502-.892-2.013-1.753-2.013h-.611v4.002zm13.09 2.453h-6.569V69.657h6.343v2.812h-3.713v2.967h3.523v2.757h-3.523v3.449h3.939v2.818zm8.643-14.597c.984-.173 2.356-.305 4.098-.305 2.003 0 3.482.331 4.502 1.17.968.763 1.543 2.031 1.543 3.405 0 4.119-3.448 5.077-5.836 5.077-.333 0-.63-.016-.864-.039v5.289H78.48V69.863zm3.443 6.668c.214.02.428.038.793.038 1.606 0 2.479-.94 2.479-2.279 0-1.361-.853-2.108-2.229-2.108-.472 0-.849.057-1.043.117v4.232zm20.595.324c0 5.152-2.579 7.814-6.414 7.814-4.205 0-6.248-3.526-6.248-7.58 0-4.177 2.364-7.646 6.458-7.646 4.43 0 6.204 3.814 6.204 7.412zm-9.02.172c-.02 2.836.967 4.864 2.721 4.864 1.745 0 2.657-2.027 2.657-4.917 0-2.59-.893-4.752-2.657-4.752-1.856 0-2.721 2.261-2.721 4.805zm18.69.52c1.04.401 1.571 1.358 1.924 2.773.396 1.592.829 3.564 1.118 4.141h-3.582c-.191-.425-.583-1.745-.92-3.489-.333-1.801-.872-2.273-2.035-2.273h-.667v5.761h-3.447V69.863c1.07-.173 2.542-.305 4.113-.305 2.035 0 6.013.21 6.013 4.272 0 1.743-1.122 3.102-2.519 3.639v.078zm-3.256-1.345c1.463 0 2.308-.877 2.308-2.085 0-1.685-1.285-2.011-2.09-2.011-.552 0-.925.038-1.123.097v3.999h.905zm17.385-3.596h-3.483V84.46h-3.471V72.606h-3.443v-2.949h10.396v2.949zm14.589 4.249c0 5.152-1.939 7.814-4.811 7.814-3.138 0-4.681-3.526-4.681-7.58 0-4.177 1.773-7.646 4.843-7.646 3.321 0 4.649 3.814 4.649 7.412zm-6.758.172c-.012 2.836.717 4.864 2.035 4.864 1.305 0 1.992-2.027 1.992-4.917 0-2.59-.667-4.752-1.992-4.752-1.385 0-2.035 2.261-2.035 4.805zm7.425 7.433V69.657h5.537v2.812h-3.233v3.33h3.015v2.761h-3.015v5.9h-2.304zm15.764-11.854h-1.781V84.46h-1.769V72.606h-1.745v-2.949h5.296v2.949z"/></svg>